<?xml version="1.0" encoding="UTF-8"?>
<svg version="1.1" xmlns="http://www.w3.org/2000/svg" width="512" height="512">
<path d="M0 0 C168.96 0 337.92 0 512 0 C512 168.96 512 337.92 512 512 C343.04 512 174.08 512 0 512 C0 343.04 0 174.08 0 0 Z " fill="#55AAFF" transform="translate(0,0)"/>
<path d="M0 0 C1.11890625 -0.02900391 2.2378125 -0.05800781 3.390625 -0.08789062 C11.58189807 -0.15067751 17.12028466 0.86427042 23.25 6.6875 C27.78753148 17.65320108 24.08186998 29.82481479 19.75 40.3125 C18.30038893 42.79911937 16.79597228 45.26652772 14.75 47.3125 C14.31980948 49.38884321 13.94222291 51.47611304 13.5859375 53.56640625 C13.35314238 54.89720256 13.11946151 56.22784415 12.88500977 57.55834961 C12.70000412 58.61383499 12.70000412 58.61383499 12.51126099 59.69064331 C10.06082934 73.54815661 6.84894948 86.8968504 2.65429688 100.34130859 C0.71323934 106.71891935 -1.00793208 113.16139439 -2.76538086 119.59155273 C-4.4514513 125.68695438 -6.33575691 131.68321182 -8.36401367 137.67333984 C-9.34499497 140.5954693 -10.23141745 143.53184805 -11.0625 146.5 C-11.55556641 148.25957031 -11.55556641 148.25957031 -12.05859375 150.0546875 C-12.24276855 150.7156543 -12.42694336 151.37662109 -12.61669922 152.05761719 C-13.35012463 154.66899619 -14.09897314 157.27576752 -14.84765625 159.8828125 C-19.05330746 174.60552781 -22.79844323 189.39615144 -26.25 204.3125 C-26.47429687 205.27317383 -26.69859375 206.23384766 -26.9296875 207.22363281 C-28.21377012 212.72819285 -29.46746148 218.2384295 -30.68408203 223.75830078 C-31.0463618 225.39340471 -31.41402308 227.02733132 -31.78857422 228.65966797 C-36.69258512 250.10377948 -39.63376279 272.86086514 -39.8347168 294.87084961 C-39.95521673 301.03898171 -41.10204712 306.41858319 -44.8359375 311.44921875 C-56.72534781 321.75510498 -72.091836 323.35134426 -87.25 323.6875 C-87.95608398 323.71368408 -88.66216797 323.73986816 -89.38964844 323.7668457 C-94.48531542 323.78324806 -97.36396307 322.55957719 -101.25 319.3125 C-105.23809379 312.02391479 -105.41223199 304.38660718 -105.48828125 296.27734375 C-105.49816574 295.41452789 -105.50805023 294.55171204 -105.51823425 293.66275024 C-105.81597096 260.81399708 -101.31616326 230.34519381 -93.75640869 198.45672607 C-93.26532826 196.37740264 -92.7805002 194.29674025 -92.29833984 192.21533203 C-89.18227984 178.76736159 -85.8623003 165.44713935 -81.7578125 152.265625 C-80.38218338 147.82293172 -79.15993003 143.34744151 -77.95019531 138.85717773 C-69.86194723 109.01441388 -59.58612677 79.66536841 -47.25 51.3125 C-58.27772655 50.93984841 -68.51489602 51.62047366 -79.31445312 53.91113281 C-81.07244774 54.27568165 -82.84068253 54.58994463 -84.609375 54.8984375 C-101.24209645 58.08430703 -114.2055601 66.79266259 -126.875 77.5390625 C-127.65875 78.18617188 -128.4425 78.83328125 -129.25 79.5 C-129.91 80.07105469 -130.57 80.64210938 -131.25 81.23046875 C-133.25 82.3125 -133.25 82.3125 -135.83203125 82.15625 C-140.34706576 80.58072907 -142.5197929 76.7729142 -144.5625 72.6875 C-146.77578223 61.82229632 -145.06056949 52.01013626 -139.58984375 42.39453125 C-124.97241903 20.63347801 -94.78130205 13.1221662 -70.62451172 7.83544922 C-68.60086411 7.38977235 -66.58293191 6.91827287 -64.56640625 6.44140625 C-51.65407578 3.56038916 -38.40033511 2.55639837 -25.25 1.3125 C-24.23760254 1.21461182 -23.22520508 1.11672363 -22.18212891 1.01586914 C-14.7863872 0.34347367 -7.42489943 0.06505461 0 0 Z " fill="#FEFEFF" transform="translate(236.25,101.6875)"/>
<path d="M0 0 C1.95292969 -0.04930664 1.95292969 -0.04930664 3.9453125 -0.09960938 C14.65846797 -0.15973423 14.65846797 -0.15973423 18.89453125 2.7265625 C22.73230585 6.53688521 22.73230585 6.53688521 23.9375 9.25 C24.22238281 9.85457031 24.50726563 10.45914063 24.80078125 11.08203125 C27.03577614 17.46924413 27.98922243 23.27312845 27.9375 30 C27.93186035 30.78375 27.9262207 31.5675 27.92041016 32.375 C27.20793572 67.19454252 6.72633071 101.8968866 -14.375 128.4375 C-15.44814453 129.79875 -15.44814453 129.79875 -16.54296875 131.1875 C-22.18793213 138.22122429 -28.1928743 144.87762891 -34.375 151.4375 C-35.06464844 152.1696875 -35.75429688 152.901875 -36.46484375 153.65625 C-43.80193167 161.21840197 -52.08994335 167.60794989 -60.625 173.75 C-61.19105957 174.15847168 -61.75711914 174.56694336 -62.34033203 174.98779297 C-66.22101778 177.73967534 -70.21439939 180.13016184 -74.375 182.4375 C-73.36763432 185.56413498 -72.2984304 188.62892399 -71.078125 191.6796875 C-66.63734881 202.78162797 -63.80305119 214.10666578 -61.02587891 225.72167969 C-55.10591666 256.23119771 -55.10591666 256.23119771 -38.375 280.4375 C-30.88642942 281.42655649 -25.0072871 278.86514209 -19.125 274.4375 C-14.35314298 270.54445314 -9.83509021 266.36932863 -5.33203125 262.171875 C-2.81225847 259.82601912 -0.22600544 257.56816186 2.375 255.3125 C7.87868864 250.39753656 12.84457388 244.98453643 17.82910156 239.55224609 C28.71167678 227.7686521 28.71167678 227.7686521 33.875 226.875 C36.625 227.4375 36.625 227.4375 38.375 228.5 C42.78111521 235.32947857 42.69013099 244.63578534 41.625 252.4375 C35.61096339 278.61735312 13.80534665 301.4839331 -8.375 315.4375 C-28.67452287 327.52209348 -52.3175805 336.70775081 -76.33203125 330.63671875 C-87.43378756 326.4026282 -95.4994594 317.7081283 -100.453125 307.13671875 C-105.05917283 296.36062925 -106.98472317 284.82317759 -108.8125 273.3125 C-108.91860596 272.65464508 -109.02471191 271.99679016 -109.1340332 271.31900024 C-110.96795014 259.90756442 -112.34838347 248.46887377 -113.61044312 236.98208618 C-115.04349427 224.04014989 -117.24482344 211.36348442 -119.97949219 198.62524414 C-120.375 196.4375 -120.375 196.4375 -120.375 193.4375 C-121.633125 193.23125 -122.89125 193.025 -124.1875 192.8125 C-133.88001421 190.61451252 -141.70094323 185.60946515 -147.375 177.4375 C-150.25182362 172.71059789 -149.9839607 167.80884567 -149.375 162.4375 C-146.50755774 155.98575492 -140.99073111 152.95020383 -134.6953125 150.31640625 C-130.44296004 149.19078354 -126.50533299 149.09688767 -122.125 149.125 C-121.28324219 149.12701416 -120.44148438 149.12902832 -119.57421875 149.13110352 C-113.43273443 149.23017885 -108.07871931 150.06504779 -102.375 152.4375 C-101.385 152.7675 -100.395 153.0975 -99.375 153.4375 C-85.75214566 138.45236023 -74.77126748 121.33947166 -65.375 103.4375 C-64.97812988 102.69145508 -64.58125977 101.94541016 -64.17236328 101.17675781 C-52.99778051 80.03799196 -43.97918031 57.82903498 -35 35.69140625 C-34.63823166 34.80141434 -34.27646332 33.91142242 -33.9037323 32.99446106 C-32.14135781 28.65679394 -30.38855751 24.31573503 -28.65356445 19.96704102 C-28.01540349 18.38677376 -27.37698864 16.80660899 -26.73828125 15.2265625 C-26.45658081 14.51041275 -26.17488037 13.794263 -25.88464355 13.05641174 C-23.85313855 8.06495103 -21.88224403 3.81991342 -17.03662109 1.14819336 C-11.48463257 -0.33427211 -5.70972706 0.02528915 0 0 Z " fill="#FEFEFF" transform="translate(379.375,87.5625)"/>
<path d="M0 0 C0.33 0 0.66 0 1 0 C1 13.53 1 27.06 1 41 C-12.53 41 -26.06 41 -40 41 C-36.76284016 39.38142008 -33.61375469 38.05715856 -30.25 36.75 C-24.78388069 34.47853851 -20.44415797 31.88380762 -16 28 C-15.40703125 27.52304687 -14.8140625 27.04609375 -14.203125 26.5546875 C-6.56114327 19.82568589 -2.52693015 9.66396702 0 0 Z " fill="#FFFFFF" transform="translate(511,471)"/>
<path d="M0 0 C1.61857992 3.23715984 2.94284144 6.38624531 4.25 9.75 C6.52146149 15.21611931 9.11619238 19.55584203 13 24 C13.71542969 24.88945312 13.71542969 24.88945312 14.4453125 25.796875 C21.17431411 33.43885673 31.33603298 37.47306985 41 40 C41 40.33 41 40.66 41 41 C27.47 41 13.94 41 0 41 C0 27.47 0 13.94 0 0 Z " fill="#FFFFFF" transform="translate(0,471)"/>
<path d="M0 0 C13.53 0 27.06 0 41 0 C41 13.53 41 27.06 41 41 C39.38142008 37.76284016 38.05715856 34.61375469 36.75 31.25 C34.47853851 25.78388069 31.88380762 21.44415797 28 17 C27.52304687 16.40703125 27.04609375 15.8140625 26.5546875 15.203125 C19.82568589 7.56114327 9.66396702 3.52693015 0 1 C0 0.67 0 0.34 0 0 Z " fill="#FFFFFF" transform="translate(471,0)"/>
<path d="M0 0 C13.53 0 27.06 0 41 0 C37.76284016 1.61857992 34.61375469 2.94284144 31.25 4.25 C25.78388069 6.52146149 21.44415797 9.11619238 17 13 C16.40703125 13.47695312 15.8140625 13.95390625 15.203125 14.4453125 C7.56114327 21.17431411 3.52693015 31.33603298 1 41 C0.67 41 0.34 41 0 41 C0 27.47 0 13.94 0 0 Z " fill="#FFFFFF" transform="translate(0,0)"/>
</svg>
